# xmcd
#
# Track frame offsets: 
#        150
#        22548
#        36353
#        49683
#        67733
#        95215
#        114990
#        135098
#        153350
#        167697
#        183283
#        210925
#        229013
#        243815
#
# Disc length: 3544 seconds
#
# Revision: 2
# Processed by: cddbd v1.5.2PL0 Copyright (c) Steve Scherf et al.
# Submitted via: ExactAudioCopy v1.0b4
#
DISCID=9c0dd60e
DTITLE=Cal Valentine - The Texas Rocker
DYEAR=1994
DGENRE=Blues
TTITLE0=Lucy Mae Blues
TTITLE1=Slow Dance
TTITLE2=Well, I Done Got Over It
TTITLE3=Boogie Twis '94
TTITLE4=Rock Me Baby
TTITLE5=Trouble No More
TTITLE6=Mojo Hand
TTITLE7=You Don't Have To Go
TTITLE8=The Things I Used To Do
TTITLE9=Please Love Me
TTITLE10=I'm A Man
TTITLE11=Rockin' Blues
TTITLE12=Right Now !!
TTITLE13=Don't Let The Devil Ride
EXTD=1994\n\n\nsubmitted by Stamppot
EXTT0=
EXTT1=
EXTT2=
EXTT3=
EXTT4=
EXTT5=
EXTT6=
EXTT7=
EXTT8=
EXTT9=
EXTT10=
EXTT11=
EXTT12=
EXTT13=
PLAYORDER=
